<?xml version="1.0" encoding="UTF-8"?>
<svg version="1.1" xmlns="http://www.w3.org/2000/svg" width="430" height="238" viewBox="0 0 430 238">
<path d="M0 0 C18.88055409 -0.09355098 37.76106096 -0.16403188 56.64179897 -0.20724869 C65.40898334 -0.22785073 74.17602346 -0.25592609 82.94311523 -0.30175781 C90.5868752 -0.34169795 98.23053067 -0.36744995 105.87439209 -0.37635398 C109.91966794 -0.38155662 113.96464493 -0.39373512 118.00982475 -0.42292023 C121.82246713 -0.45020306 125.63468939 -0.45841927 129.44742012 -0.45243073 C130.84175021 -0.45352525 132.23609531 -0.46140254 133.63034058 -0.4768219 C143.10816916 -0.57644047 150.41201588 0.1257023 157.8125 6.375 C163.53468657 13.24162388 164.64918573 17.46149584 164.37890625 26.36328125 C163.53468657 33.82858975 160.60545385 37.99821688 154.9765625 42.7734375 C150.46237791 45.57472991 146.00770964 46.24958009 140.77371216 46.24050903 C139.54541183 46.24325836 138.31711151 46.24600769 137.05158997 46.24884033 C135.70382591 46.24176353 134.35606286 46.23449394 133.00830078 46.22705078 C131.57886259 46.2264862 130.14942382 46.22680415 128.71998596 46.22793579 C124.85057881 46.22850847 120.98129623 46.21676791 117.11191797 46.20278788 C113.06402884 46.19026639 109.01613671 46.1891089 104.9682312 46.18673706 C97.30792982 46.18052646 89.64768568 46.16412132 81.98740947 46.14403808 C73.26434883 46.12166601 64.54128541 46.11068236 55.81820321 46.10064721 C37.87876972 46.07975473 19.93938946 46.04458691 2 46 C2 43.03 2 40.06 2 37 C-7.57 37 -17.14 37 -27 37 C-24.91674933 32.83349866 -22.42310499 30.2495973 -19.1171875 27.09765625 C-17.93838057 25.94900013 -16.76000814 24.79989796 -15.58203125 23.65039062 C-13.72592712 21.85015173 -11.86622049 20.05409401 -9.99853516 18.26586914 C-8.19358111 16.53340798 -6.40461142 14.78567306 -4.6171875 13.03515625 C-4.05474335 12.50479263 -3.49229919 11.97442902 -2.91281128 11.42799377 C-0.53389587 9.08069813 0.90820617 7.61085703 1.41357422 4.24780273 C1.10291634 1.97418141 1.10291634 1.97418141 0 0 Z " fill="#52ABD6" transform="translate(231,178)"/>
<path d="M0 0 C1.23987167 -0.00043808 2.47974335 -0.00087616 3.75718689 -0.00132751 C7.13492401 0.00039661 10.51210177 0.01537588 13.88973999 0.03639436 C17.42777843 0.05522892 20.96582541 0.05691691 24.50390625 0.06047058 C31.19378713 0.06977124 37.88351983 0.09435797 44.57333565 0.12451905 C52.1936696 0.15812496 59.81401087 0.17456458 67.43440056 0.18960536 C83.10088392 0.22090949 98.76721968 0.27363113 114.43359375 0.34057617 C114.43359375 3.31057617 114.43359375 6.28057617 114.43359375 9.34057617 C124.33359375 9.34057617 134.23359375 9.34057617 144.43359375 9.34057617 C144.43359375 10.00057617 144.43359375 10.66057617 144.43359375 11.34057617 C143.77359375 11.34057617 143.11359375 11.34057617 142.43359375 11.34057617 C142.22114014 11.88407715 142.00868652 12.42757812 141.78979492 12.98754883 C139.94620242 16.18620672 137.39867692 18.48408809 134.734375 20.98901367 C133.5962804 22.08722137 132.45893272 23.18620354 131.32226562 24.28588867 C129.53222065 26.00775787 127.73755732 27.72361586 125.92944336 29.42651367 C124.18178669 31.07740851 122.45703393 32.74960297 120.734375 34.42651367 C119.91577751 35.1815065 119.91577751 35.1815065 119.0806427 35.95175171 C117.36171782 37.56957935 117.36171782 37.56957935 115.43359375 40.34057617 C115.73696048 43.48008284 115.73696048 43.48008284 116.43359375 46.34057617 C99.5261111 46.48100003 82.61881153 46.58667077 65.71087837 46.6514492 C57.8594623 46.68233214 50.00840944 46.72440508 42.15722656 46.79321289 C35.31074706 46.85318666 28.46453073 46.89176573 21.61779583 46.90510714 C17.99538569 46.91290089 14.37372812 46.93109855 10.75156021 46.97495651 C6.69878613 47.02362618 2.64730399 47.02450462 -1.40576172 47.02172852 C-2.59475571 47.04330017 -3.78374969 47.06487183 -5.0087738 47.08709717 C-12.9283301 47.0285664 -18.35588816 45.35860068 -24.56640625 40.34057617 C-29.5602637 34.95622865 -32.11728438 28.94926085 -31.875 21.48120117 C-30.89993496 14.71745888 -27.41839136 9.64434309 -22.73828125 4.84838867 C-15.58203661 -0.11979556 -8.40735144 -0.07825482 0 0 Z " fill="#2C4EA3" transform="translate(71.56640625,177.659423828125)"/>
<path d="M0 0 C0.66128906 0.29132812 1.32257813 0.58265625 2.00390625 0.8828125 C3.60492188 1.58083984 3.60492188 1.58083984 5.23828125 2.29296875 C6.3984375 2.83824219 7.55859375 3.38351563 8.75390625 3.9453125 C10.50960937 4.76708984 10.50960937 4.76708984 12.30078125 5.60546875 C13.63882813 6.23775391 13.63882813 6.23775391 15.00390625 6.8828125 C15.00390625 7.5428125 15.00390625 8.2028125 15.00390625 8.8828125 C14.32585937 9.223125 13.6478125 9.5634375 12.94921875 9.9140625 C5.95295986 13.55754358 -0.07569695 17.67594887 -5.99609375 22.8828125 C-6.74632812 23.53765625 -7.4965625 24.1925 -8.26953125 24.8671875 C-23.61736745 39.19183462 -35.20372091 61.38651631 -36.10644531 82.45874023 C-36.16558257 85.26750954 -36.18168001 88.07344551 -36.18359375 90.8828125 C-36.20196289 92.30207031 -36.20196289 92.30207031 -36.22070312 93.75 C-36.23265414 99.5024237 -35.63492607 104.36762772 -33.99609375 109.8828125 C-33.68285156 111.0275 -33.68285156 111.0275 -33.36328125 112.1953125 C-33.20085937 112.7521875 -33.0384375 113.3090625 -32.87109375 113.8828125 C-32.58234375 114.8728125 -32.29359375 115.8628125 -31.99609375 116.8828125 C-50.7144734 99.53711403 -57.94426524 68.19199885 -58.87890625 43.7578125 C-59.12558324 35.13484281 -59.07264832 26.50796025 -58.99609375 17.8828125 C-57.99364624 17.70274658 -57.99364624 17.70274658 -56.97094727 17.51904297 C-39.22625816 14.28277214 -22.88596502 10.28573892 -6.81396484 1.97900391 C-2.5633132 -0.15048805 -2.5633132 -0.15048805 0 0 Z " fill="#2A4DA2" transform="translate(224.99609375,23.1171875)"/>
<path d="M0 0 C-3.08511038 1.67341463 -6.28482327 2.86860089 -9.58349609 4.05419922 C-27.3669648 10.46351156 -41.25339339 20.63448411 -52.125 36.25 C-52.64707031 36.99652832 -53.16914063 37.74305664 -53.70703125 38.51220703 C-57.53258113 44.09033093 -60.63435543 49.645996 -63 56 C-63.35320312 56.89976563 -63.70640625 57.79953125 -64.0703125 58.7265625 C-65.1122518 61.46647695 -66.07425643 64.21881311 -67 67 C-67.30164063 67.89589844 -67.60328125 68.79179688 -67.9140625 69.71484375 C-72.50183538 84.6572629 -69.8955901 101.71453169 -64 116 C-59.66798391 123.80725566 -54.13027196 130.54364975 -48 137 C-51.52950587 137 -51.85945247 136.54599546 -54.328125 134.21875 C-54.96000732 133.62803711 -55.59188965 133.03732422 -56.24291992 132.42871094 C-56.90525635 131.79223633 -57.56759277 131.15576172 -58.25 130.5 C-58.92587158 129.85579102 -59.60174316 129.21158203 -60.2980957 128.54785156 C-62.21096877 126.71064191 -64.10898169 124.8596696 -66 123 C-67.18916016 121.83210938 -67.18916016 121.83210938 -68.40234375 120.640625 C-79.22247896 109.18122578 -78.39404367 94.31109218 -78.08447266 79.56494141 C-77.31767209 56.28168498 -63.2997186 34.43777346 -47.046875 18.62109375 C-41.43785014 13.60023228 -33.55812095 7.22564123 -26 6 C-26 5.34 -26 4.68 -26 4 C-17.01743708 1.02352945 -9.49378254 -0.62596368 0 0 Z " fill="#A5E1E7" transform="translate(266,26)"/>
<path d="M0 0 C0 15.51 0 31.02 0 47 C-4.33372054 45.26651178 -7.7699338 43.29485721 -11.5625 40.6875 C-12.88988594 39.78927144 -14.21805409 38.89219808 -15.546875 37.99609375 C-16.25908203 37.5151123 -16.97128906 37.03413086 -17.70507812 36.53857422 C-21.88274078 33.73776251 -26.0970619 30.99349328 -30.3125 28.25 C-31.12340088 27.71979248 -31.93430176 27.18958496 -32.76977539 26.64331055 C-33.56375732 26.12679932 -34.35773926 25.61028809 -35.17578125 25.078125 C-35.95727539 24.56459473 -36.73876953 24.05106445 -37.54394531 23.52197266 C-40.01951206 21.9433827 -40.01951206 21.9433827 -42.80761719 20.55224609 C-45.41500236 19.18117683 -47.73796464 17.88860637 -50 16 C-50.83876095 12.67850665 -51.02708593 11.31694371 -50.625 8.125 C-50.57988281 7.43664062 -50.53476563 6.74828125 -50.48828125 6.0390625 C-50.37137151 4.35556223 -50.19197704 2.67659949 -50 1 C-46.40296354 2.33156827 -43.30839527 3.93690381 -40.0859375 6.01171875 C-39.15910156 6.60533203 -38.23226562 7.19894531 -37.27734375 7.81054688 C-36.31957031 8.42994141 -35.36179688 9.04933594 -34.375 9.6875 C-33.44042969 10.28755859 -32.50585938 10.88761719 -31.54296875 11.50585938 C-29.65755678 12.71642389 -27.77311277 13.9284973 -25.88964844 15.14208984 C-21.27068096 18.11187208 -16.63551047 21.05612933 -12 24 C-12.12761719 22.85402344 -12.25523437 21.70804688 -12.38671875 20.52734375 C-13.10435341 11.27545518 -13.10435341 11.27545518 -12 7 C-9.16547386 3.84441102 -4.55507983 0 0 0 Z " fill="#4378BA" transform="translate(262,73)"/>
<path d="M0 0 C-0.21785156 0.90878906 -0.43570313 1.81757812 -0.66015625 2.75390625 C-1.15579784 7.4456592 -1.4415836 10.84391519 1 15 C8.26664841 21.34164748 17.41762933 25.71111311 26 30 C23.83171353 32.20846827 21.69577453 34.07697712 19.125 35.8125 C18.46757812 36.27269531 17.81015625 36.73289063 17.1328125 37.20703125 C14.11324276 38.3296918 12.89341545 37.32257768 10 36 C8.14439852 35.01614058 6.30528828 34.0007788 4.48046875 32.9609375 C3.45888672 32.38085938 2.43730469 31.80078125 1.38476562 31.203125 C0.32966797 30.59984375 -0.72542969 29.9965625 -1.8125 29.375 C-3.42415039 28.45847656 -3.42415039 28.45847656 -5.06835938 27.5234375 C-7.71386076 26.01844115 -10.3576625 24.51054209 -13 23 C-13.66877661 17.81191479 -13.96480735 13.16823832 -13 8 C-9.83531172 4.30526541 -5.14654167 0 0 0 Z " fill="#4C8AC3" transform="translate(225,98)"/>
<path d="M0 0 C4.27271584 2.17284221 8.7874485 4.574897 11 9 C10 12 10 12 8.328125 12.9140625 C-1.83116883 16.38961039 -1.83116883 16.38961039 -6 15 C-7.89212737 14.77820215 -9.78884472 14.59385985 -11.6875 14.4375 C-12.68136719 14.35371094 -13.67523438 14.26992188 -14.69921875 14.18359375 C-15.45847656 14.12300781 -16.21773437 14.06242187 -17 14 C-16.71637301 8.18564666 -14.18303812 4.80098077 -10 1 C-6.23655264 -1.24066519 -4.26330425 -1.2297993 0 0 Z " fill="#56ACD7" transform="translate(248,44)"/>
<path d="M0 0 C1.07765625 0.00902344 2.1553125 0.01804687 3.265625 0.02734375 C4.08546875 0.03894531 4.9053125 0.05054687 5.75 0.0625 C2.95392978 1.52741151 0.17993234 2.68495922 -2.8125 3.6875 C-3.95912109 4.07808594 -3.95912109 4.07808594 -5.12890625 4.4765625 C-7.25 5.0625 -7.25 5.0625 -10.25 5.0625 C-10.25 3.7425 -10.25 2.4225 -10.25 1.0625 C-6.78777385 -0.00473961 -3.60960734 -0.03923486 0 0 Z " fill="#B1E3EA" transform="translate(260.25,25.9375)"/>
</svg>
