<svg width="30" height="30" viewBox="0 0 30 30" fill="none" xmlns="http://www.w3.org/2000/svg">
  <path d="M15 3L18.1 5.1L21.8 5.5L22.7 9.1L25.1 12L22.7 14.9L21.8 18.5L18.1 18.9L15 21L11.9 18.9L8.2 18.5L7.3 14.9L4.9 12L7.3 9.1L8.2 5.5L11.9 5.1L15 3Z" stroke="#1D4ED8" stroke-width="2" stroke-linejoin="round"/>
  <path d="M11.5 12.2L14 14.7L18.6 10.1" stroke="#1D4ED8" stroke-width="2" stroke-linecap="round" stroke-linejoin="round"/>
  <path d="M6 25.2C8.1 22.7 9.8 21.7 12.1 21.7H16.2C17.5 21.7 18.6 22.8 18.6 24.1V24.1" stroke="#1D4ED8" stroke-width="2" stroke-linecap="round"/>
  <path d="M18.6 24.1L22.2 20.9C23 20.2 24.2 20.2 24.9 21C25.6 21.8 25.5 22.9 24.7 23.6L20.8 27H12.7" stroke="#1D4ED8" stroke-width="2" stroke-linecap="round" stroke-linejoin="round"/>
</svg>
